<mxfile host="app.diagrams.net" modified="2024-04-24T14:40:05.949Z" agent="Mozilla/5.0 (Windows NT 10.0; Win64; x64) AppleWebKit/537.36 (KHTML, like Gecko) Chrome/124.0.0.0 Safari/537.36" version="24.3.0" etag="Mi75G3300v6gaM6GoB_x" type="github">
  <diagram name="Page-1" id="HZw65drn86Xa7tnP-U8J">
    <mxGraphModel>
      <root>
        <mxCell id="0" />
        <mxCell id="1" parent="0" />
      </root>
    </mxGraphModel>
  </diagram>
</mxfile>
